<svg xmlns="http://www.w3.org/2000/svg" xmlns:xlink="http://www.w3.org/1999/xlink" viewBox="0,0,256,256" width="128px" height="128px" fill-rule="nonzero"><g fill="#470000" fill-rule="nonzero" stroke="none" stroke-width="1" stroke-linecap="butt" stroke-linejoin="miter" stroke-miterlimit="10" stroke-dasharray="" stroke-dashoffset="0" font-family="none" font-weight="none" font-size="none" text-anchor="none" style="mix-blend-mode: normal"><path d="M128,256c-70.69245,0 -128,-57.30755 -128,-128v0c0,-70.69245 57.30755,-128 128,-128v0c70.69245,0 128,57.30755 128,128v0c0,70.69245 -57.30755,128 -128,128z" id="shape"></path></g><g fill="none" fill-rule="nonzero" stroke="none" stroke-width="1" stroke-linecap="butt" stroke-linejoin="miter" stroke-miterlimit="10" stroke-dasharray="" stroke-dashoffset="0" font-family="none" font-weight="none" font-size="none" text-anchor="none" style="mix-blend-mode: normal"><g transform="scale(8,8)"><path d="M24.87,8c-0.723,-4.526 -4.643,-8 -9.37,-8c-4.727,0 -8.647,3.474 -9.37,8l-2.13,1v7h5v-6.5c0,-1.532 1.631,-2.918 2.646,-3.917l1.354,5.417h5l1.354,-5.417c1.015,0.999 2.646,2.385 2.646,3.917v6.5h5v-7z" fill="#ea0000"></path><rect x="10" y="14" width="4" height="2" fill="#d3bf18"></rect><path d="M22,18v1l-3,3h-7l-3,-3v-1h-5l1,2l1,1v2l3,3v5h8v-2h-5v-5h7v5v0v2h3v-5l3,-3v-2l1,-1l1,-2z" fill="#d3bf18"></path><rect x="17" y="14" width="4" height="2" fill="#d3bf18"></rect></g></g></svg>